<svg width="23" height="30" viewBox="0 0 23 30" fill="none" xmlns="http://www.w3.org/2000/svg">
<path d="M20 25.1611C20 26.4444 18.9466 27.6756 17.0713 28.583C15.1959 29.4904 12.6522 30 10 30C7.34784 30 4.80407 29.4904 2.92871 28.583C1.0534 27.6756 -1.15928e-07 26.4444 0 25.1611H20Z" fill="#A6A6A6"/>
<path d="M12 21.29H0V17.4189H12V21.29Z" fill="#A6A6A6"/>
<path d="M23 21.29H17V17.4189H23V21.29Z" fill="#A6A6A6"/>
<path d="M6 12.5811H0V8.70996H6V12.5811Z" fill="#A6A6A6"/>
<path d="M23 12.5811H11V8.70996H23V12.5811Z" fill="#A6A6A6"/>
<path d="M10 0C12.6522 9.68869e-08 15.1959 0.509558 17.0713 1.41699C18.9466 2.32442 20 3.55558 20 4.83887H0C4.00459e-07 3.55558 1.0534 2.32442 2.92871 1.41699C4.80407 0.509558 7.34784 -1.40258e-10 10 0Z" fill="#A6A6A6"/>
</svg>
